<svg xmlns="http://www.w3.org/2000/svg"
     width="1024" height="1024" viewBox="0 0 8 8"
     shape-rendering="crispEdges">
  <!-- background -->
  <rect x="0" y="0" width="8" height="8" fill="#07140a"/>

  <!-- shadow (offset by 1px) -->
  <g fill="#0b3d19">
    <rect x="3" y="2" width="3" height="1"/>
    <rect x="2" y="3" width="1" height="1"/>
    <rect x="6" y="3" width="1" height="1"/>
    <rect x="2" y="4" width="5" height="1"/>
    <rect x="2" y="5" width="1" height="1"/>
    <rect x="6" y="5" width="1" height="1"/>
    <rect x="2" y="6" width="1" height="1"/>
    <rect x="6" y="6" width="1" height="1"/>
    <rect x="2" y="7" width="1" height="1"/>
    <rect x="6" y="7" width="1" height="1"/>
  </g>

  <!-- main glyph "a" -->
  <g fill="#39ff73">
    <rect x="2" y="1" width="3" height="1"/>
    <rect x="1" y="2" width="1" height="1"/>
    <rect x="5" y="2" width="1" height="1"/>
    <rect x="1" y="3" width="5" height="1"/>
    <rect x="1" y="4" width="1" height="1"/>
    <rect x="5" y="4" width="1" height="1"/>
    <rect x="1" y="5" width="1" height="1"/>
    <rect x="5" y="5" width="1" height="1"/>
    <rect x="1" y="6" width="1" height="1"/>
    <rect x="5" y="6" width="1" height="1"/>
  </g>
</svg>
